<?xml version="1.0" encoding="UTF-8"?>
<svg xmlns="http://www.w3.org/2000/svg" width="57.381" height="61.809" viewBox="0 0 57.381 61.809">
  <path id="speed-and-efficiency" d="M49.514,10.916,46.528,7.93l-1.092,4.08,4.08-1.094ZM26.5,61.088l2.986,2.986,1.094-4.08Zm2.8,5.534-5.349-5.351a.965.965,0,0,1,.432-1.613l7.3-1.955a.965.965,0,0,1,1.193,1.176l-.725,2.707a26.98,26.98,0,0,0,19.357-2.759l.943,1.674a28.843,28.843,0,0,1-20.8,2.949l-.721,2.691a.965.965,0,0,1-1.627.48ZM54.056,59.5l1.631-1.152-1.172-1.535-1.523,1.074Zm3.181-2.416L58.7,55.706l-1.381-1.349-1.353,1.275,1.277,1.449Zm2.81-2.847,1.244-1.564-1.556-1.146-1.16,1.459Zm2.371-3.218,1.006-1.732-1.707-.9-.935,1.607,1.635,1.027ZM64.3,47.488l.746-1.851-1.818-.654-.7,1.732,1.769.775Zm1.357-3.757.473-1.945L64.24,41.4,63.8,43.211Zm.8-3.919.189-1.992-1.929-.1-.176,1.853Zm.234-3.988-.1-2-1.924.168.092,1.857Zm-.342-3.988-.385-1.965-1.877.453,0-.006.359,1.83,1.906-.309Zm-.912-3.894-.662-1.883-1.8.705.617,1.758Zm-1.461-3.724-.924-1.771-1.676.959.861,1.652Zm-1.965-3.472-1.16-1.627L59.325,20.3l1.082,1.519,1.611-1.068Zm-2.431-3.168c-.441-.5-.9-.982-1.375-1.451L56.855,17.5q.664.655,1.283,1.353ZM27.77,35.035h2.6v1.931h-2.6a10.171,10.171,0,0,0,9.272,9.057V43.637h1.931v2.386a10.174,10.174,0,0,0,9.274-9.057h-2.6V35.035h2.6a10.171,10.171,0,0,0-9.272-9.057v2.386H37.039V25.979a10.169,10.169,0,0,0-9.272,9.057Zm11.192-5.15.006,5.154,3.714,0v1.922l-4.675,0A.961.961,0,0,1,37.045,36l-.006-6.115Zm-9.585-2.371a12.365,12.365,0,0,1,17.429.168A11.85,11.85,0,0,1,50.221,36a12.216,12.216,0,0,1-24.429,0,11.856,11.856,0,0,1,3.584-8.487ZM18.413,39.136a20.164,20.164,0,0,1,.045-6.556.966.966,0,0,1,1.027-.8l1.652.012a.3.3,0,0,0,.3-.232A17.229,17.229,0,0,1,23.285,27.2a.3.3,0,0,0-.045-.377L22.031,25.6a.963.963,0,0,1-.094-1.242,19.993,19.993,0,0,1,4.677-4.605.962.962,0,0,1,1.271.143l1.178,1.2a.3.3,0,0,0,.373.049,17.013,17.013,0,0,1,4.388-1.779.3.3,0,0,0,.236-.3l.014-1.722A.962.962,0,0,1,34.9,16.4a19.812,19.812,0,0,1,6.544.053.966.966,0,0,1,.8,1.035l-.014,1.642a.3.3,0,0,0,.23.3,17.21,17.21,0,0,1,4.355,1.842.3.3,0,0,0,.377-.047l1.217-1.2a.968.968,0,0,1,1.242-.094,20,20,0,0,1,4.6,4.673.962.962,0,0,1-.143,1.271l-1.187,1.168a.3.3,0,0,0-.051.375A17.134,17.134,0,0,1,54.641,31.8a.3.3,0,0,0,.293.234l1.717.012a.963.963,0,0,1,.947.812,20.164,20.164,0,0,1-.045,6.556.964.964,0,0,1-1.025.8L54.877,40.2a.3.3,0,0,0-.3.232,17.261,17.261,0,0,1-1.844,4.357.3.3,0,0,0,.045.377L53.984,46.4a.965.965,0,0,1,.094,1.242A20.032,20.032,0,0,1,49.4,52.244.962.962,0,0,1,48.13,52.1l-1.176-1.2a.3.3,0,0,0-.375-.051,16.912,16.912,0,0,1-4.388,1.779.306.306,0,0,0-.236.3l-.014,1.722a.96.96,0,0,1-.828.945,20.021,20.021,0,0,1-6.542-.053.962.962,0,0,1-.8-1.035l.014-1.64a.3.3,0,0,0-.23-.3A17.255,17.255,0,0,1,29.2,50.726a.3.3,0,0,0-.377.047l-1.217,1.2a.965.965,0,0,1-1.242.094,19.958,19.958,0,0,1-4.6-4.673.962.962,0,0,1,.143-1.271L23.1,44.955a.3.3,0,0,0,.051-.375,17.134,17.134,0,0,1-1.775-4.386.3.3,0,0,0-.293-.234l-1.717-.012a.961.961,0,0,1-.947-.812Zm1.678-3.271a17.8,17.8,0,0,1,.146-2.156l.891.006A2.218,2.218,0,0,0,23.3,32.059a14.985,14.985,0,0,1,1.633-3.867,2.226,2.226,0,0,0,.307-1.412c-.107-.9-.646-1.316-1.254-1.937a17.951,17.951,0,0,1,3.078-3.031l.621.631a2.223,2.223,0,0,0,2.711.367,15.228,15.228,0,0,1,3.89-1.576,2.229,2.229,0,0,0,1.217-.785,3.2,3.2,0,0,0,.48-2.252,18.245,18.245,0,0,1,4.32.037l-.008.879a2.219,2.219,0,0,0,1.656,2.179,15,15,0,0,1,3.865,1.631,2.226,2.226,0,0,0,1.412.307c.9-.107,1.312-.639,1.926-1.246a17.916,17.916,0,0,1,3.029,3.074l-.623.613a2.224,2.224,0,0,0-.369,2.711,15.04,15.04,0,0,1,1.572,3.89,2.229,2.229,0,0,0,.785,1.217,3.2,3.2,0,0,0,2.25.48,18.03,18.03,0,0,1-.033,4.32l-.891-.006A2.218,2.218,0,0,0,52.7,39.94a14.986,14.986,0,0,1-1.633,3.867,2.226,2.226,0,0,0-.307,1.412c.107.9.646,1.316,1.254,1.935a17.952,17.952,0,0,1-3.078,3.031l-.621-.631a2.224,2.224,0,0,0-2.711-.367,15.12,15.12,0,0,1-3.89,1.574,2.24,2.24,0,0,0-1.217.785,3.208,3.208,0,0,0-.482,2.252,18.013,18.013,0,0,1-4.318-.037l.006-.879A2.219,2.219,0,0,0,34.051,50.7a14.967,14.967,0,0,1-3.865-1.631,2.239,2.239,0,0,0-1.412-.307c-.9.107-1.31.639-1.926,1.246a17.915,17.915,0,0,1-3.029-3.074l.623-.613a2.219,2.219,0,0,0,.369-2.711,15.069,15.069,0,0,1-1.572-3.89,2.229,2.229,0,0,0-.785-1.217,3.2,3.2,0,0,0-2.25-.48,18.206,18.206,0,0,1-.113-2.164ZM23.564,11.5a28.843,28.843,0,0,1,20.8-2.949l.721-2.691a.965.965,0,0,1,1.627-.48l5.349,5.351a.965.965,0,0,1-.432,1.613l-7.3,1.955a.964.964,0,0,1-1.193-1.176l.725-2.707a26.983,26.983,0,0,0-19.357,2.759L23.566,11.5Zm-1.6,1-1.633,1.152L21.5,15.191l1.523-1.074ZM18.778,14.92,17.319,16.3,18.7,17.644l1.353-1.275L18.776,14.92ZM18.7,17.644m-2.734.123-1.242,1.564,1.556,1.146,1.16-1.459-1.472-1.25ZM13.6,20.987l-1.006,1.732,1.707.9.935-1.607L13.6,20.989Zm-1.886,3.529-.744,1.851,1.816.654.7-1.732-1.769-.775Zm-1.357,3.757-.473,1.945,1.894.383.439-1.808ZM9.55,32.191l-.189,1.992,1.929.1.176-1.853Zm-.234,3.988.1,2,1.924-.168-.092-1.857Zm.342,3.988.385,1.965,1.877-.453,0,.006-.359-1.83-1.906.309Zm.912,3.894.662,1.883,1.8-.705-.617-1.76-1.842.58Zm1.461,3.724.924,1.773,1.676-.959-.861-1.652-1.74.84ZM14,51.257l1.16,1.627,1.531-1.176-1.082-1.519-1.611,1.068Zm2.431,3.168q.661.747,1.375,1.449L19.157,54.5q-.664-.655-1.283-1.353l-1.447,1.279Z" transform="translate(-9.316 -5.096)" fill="#333c52" fill-rule="evenodd"></path>
</svg>
